<svg width="25" height="40" viewBox="0 0 25 40" fill="none" xmlns="http://www.w3.org/2000/svg">
<g style="mix-blend-mode:multiply">
<path d="M21.7343 26.1298C20.4641 17.6609 15.5451 10.0215 8.46327 5.23177C7.4965 4.57535 6.49291 3.97485 5.45745 3.43322C4.95723 3.17243 4.78299 2.92176 4.39743 3.38039C4.0692 3.78056 4.004 4.72143 3.90171 5.20816C3.59027 6.69923 3.46342 8.22295 3.52401 9.745C3.63043 12.7973 4.51162 15.7725 6.08469 18.3904C8.73755 22.7384 13.4138 25.8274 18.4733 26.4164C16.0797 25.9532 13.8086 24.9972 11.8043 23.6091C9.80003 22.221 8.10642 20.4312 6.83109 18.3533C5.58112 16.2605 4.77996 13.9307 4.47846 11.5118C4.17697 9.09289 4.38173 6.6377 5.07975 4.30214C12.6168 8.02626 18.2316 15.0046 20.8171 22.9508C20.9182 23.2622 21.0149 23.5758 21.1071 23.8895C21.3858 24.8404 21.6095 25.9128 21.8389 26.902C21.8074 26.6412 21.7725 26.3861 21.7343 26.1298Z" fill="#231F20"/>
</g>
<g style="mix-blend-mode:multiply">
<path d="M20.4585 30.1125C18.6667 34.0704 14.2546 37.1392 10.2663 38.3296C9.17789 38.6555 8.05874 38.8684 6.92664 38.9647C6.08132 39.0366 4.38169 39.2918 3.66677 38.8388C3.94667 38.3464 4.33223 37.8934 4.66833 37.4325L5.43159 36.3815C7.16719 33.9917 8.69146 31.3613 11.0824 29.5459C13.026 28.0689 15.6114 27.2303 17.9517 27.9261C16.1903 27.1314 14.0939 27.3236 12.3313 28.1093C10.5687 28.8951 9.09276 30.2215 7.80792 31.6648C6.47475 33.161 5.31356 34.8033 4.15912 36.44C3.68325 37.1077 3.20926 37.7758 2.73714 38.4442C2.26952 39.1052 2.15824 39.7392 3.12833 39.8628C6.57592 40.3024 10.1607 39.6841 13.2227 38.0283C16.6017 36.2005 19.3265 33.1419 20.6956 29.547C20.6237 29.7381 20.545 29.927 20.4585 30.1125Z" fill="#231F20"/>
</g>
<g style="mix-blend-mode:multiply">
<path d="M12.628 39.6346C12.628 39.6346 24.2691 36.196 24.4568 20.724C24.4568 20.724 27.0985 37.1931 12.628 39.6346Z" fill="#231F20"/>
</g>
<g style="mix-blend-mode:multiply">
<path d="M20.6956 25.733C20.6956 25.733 18.0698 12.5204 5.42035 5.44421C5.42035 5.44421 3.3464 23.2914 20.6956 25.733Z" fill="#FFCA0B"/>
</g>
<g style="mix-blend-mode:multiply">
<path d="M20.0088 29.3031C20.0088 29.3031 14.3726 26.6727 9.61434 32.2459C4.85606 37.8192 4.66833 38.4453 4.66833 38.4453C4.66833 38.4453 15.3776 38.7578 20.0088 29.3031Z" fill="#2FB4B9"/>
</g>
<g style="mix-blend-mode:multiply">
<path d="M21.7534 26.1388C22.3537 17.5957 19.2119 9.07058 13.3407 2.8566C12.5373 2.0066 11.6861 1.20307 10.7913 0.449915C10.3641 0.0890809 10.2427 -0.195315 9.77172 0.170016C9.36705 0.484761 9.09727 1.38966 8.89268 1.84267C8.26661 3.23048 7.81357 4.69001 7.54377 6.18841C6.98485 9.19019 7.19877 12.2848 8.1654 15.1811C9.80994 20.0013 13.7038 24.0323 18.5138 25.7072C16.2775 24.7356 14.2677 23.3097 12.612 21.5198C10.9563 19.73 9.69083 17.6155 8.89606 15.3104C8.13092 12.9954 7.85573 10.5465 8.08795 8.11938C8.32017 5.69227 9.05474 3.34 10.245 1.21205C16.7939 6.48517 20.7541 14.5157 21.5545 22.834C21.5859 23.16 21.6122 23.4863 21.6331 23.8131C21.6983 24.8023 21.6849 25.8926 21.6938 26.9122C21.7152 26.6548 21.7354 26.3973 21.7534 26.1388Z" fill="#231F20"/>
</g>
<g style="mix-blend-mode:multiply">
<path d="M19.6457 29.7493C17.0367 33.2239 12.0626 35.2574 7.91247 35.5553C6.77916 35.6369 5.64048 35.6018 4.51433 35.4507C3.67351 35.3383 1.95927 35.2169 1.36013 34.6189C1.74007 34.1996 2.21444 33.8399 2.6416 33.4645L3.61506 32.6045C5.82952 30.6475 7.88661 28.4128 10.6159 27.1594C12.8349 26.1399 15.5406 25.8825 17.6741 27.0706C16.1273 25.9117 14.0388 25.6441 12.1447 26.0286C10.2506 26.413 8.5251 27.3854 6.95811 28.5151C5.33155 29.6875 3.841 31.0364 2.36057 32.3831L0.535047 34.0333C-0.0652187 34.5762 -0.311395 35.1708 0.609237 35.5024C3.8781 36.6805 7.51229 36.8514 10.8598 35.9049C14.5559 34.855 17.8798 32.4618 19.9976 29.2502C19.8863 29.42 19.7683 29.5863 19.6457 29.7493Z" fill="#231F20"/>
</g>
<g style="mix-blend-mode:multiply">
<path d="M20.8272 25.5262C20.8272 25.5262 21.1329 12.0584 10.3236 2.40247C10.3236 2.40247 4.42216 19.3729 20.8272 25.5262Z" fill="#CC3467"/>
</g>
<g style="mix-blend-mode:multiply">
<path d="M19.3827 28.8613C19.3827 28.8613 14.4524 25.0675 8.59703 29.4762C2.74163 33.8849 2.42126 34.4526 2.42126 34.4526C2.42126 34.4526 12.8056 37.0841 19.3827 28.8613Z" fill="#2FB4B9"/>
</g>
</svg>
